<?xml version="1.0" encoding="UTF-8" standalone="no"?>
<svg
   xmlns:dc="http://purl.org/dc/elements/1.1/"
   xmlns:cc="http://creativecommons.org/ns#"
   xmlns:rdf="http://www.w3.org/1999/02/22-rdf-syntax-ns#"
   xmlns:svg="http://www.w3.org/2000/svg"
   xmlns="http://www.w3.org/2000/svg"
   xmlns:sodipodi="http://sodipodi.sourceforge.net/DTD/sodipodi-0.dtd"
   xmlns:inkscape="http://www.inkscape.org/namespaces/inkscape"
   id="svg22"
   height="94.32mm"
   width="229.00999mm"
   version="1.0"
   sodipodi:docname="Picture1 - Copy.svg"
   inkscape:version="0.92.1 r15371">
  <sodipodi:namedview
     pagecolor="#ffffff"
     bordercolor="#666666"
     borderopacity="1"
     objecttolerance="10"
     gridtolerance="10"
     guidetolerance="10"
     inkscape:pageopacity="0"
     inkscape:pageshadow="2"
     inkscape:window-width="2866"
     inkscape:window-height="1955"
     id="namedview15"
     showgrid="false"
     inkscape:zoom="1.6567653"
     inkscape:cx="380.62947"
     inkscape:cy="79.140866"
     inkscape:window-x="-13"
     inkscape:window-y="-13"
     inkscape:window-maximized="1"
     inkscape:current-layer="svg22" />
  <metadata
     id="metadata26">
    <rdf:RDF>
      <cc:Work
         rdf:about="">
        <dc:format>image/svg+xml</dc:format>
        <dc:type
           rdf:resource="http://purl.org/dc/dcmitype/StillImage" />
      </cc:Work>
    </rdf:RDF>
  </metadata>
  <defs
     id="defs6">
    <clipPath
       id="clipEmfPath1"
       clipPathUnits="userSpaceOnUse">
      <path
         id="path2"
         d="M -0.63961236,-0.63961236 L 864.11629,-0.63961236 L 864.11629,356.26408 L -0.63961236,356.26408 z" />
    </clipPath>
    <pattern
       y="0"
       x="0"
       height="6"
       width="6"
       patternUnits="userSpaceOnUse"
       id="EMFhbasepattern" />
  </defs>
  <g
     id="g8"
     clip-path="url(#clipEmfPath1)" />
  <g
     id="g4509"
     transform="translate(20,-7.429342)">
    <g
       aria-label="Charon Special "
       style="font-style:normal;font-variant:normal;font-weight:300;font-size:107.6875px;line-height:125%;font-family:'Source Sans Pro Light';text-align:start;letter-spacing:0px;word-spacing:0px;text-anchor:start;fill:#000000;fill-opacity:1;stroke:none"
       id="text14" />
    <g
       aria-label="Situations Group"
       style="font-style:normal;font-variant:normal;font-weight:300;font-size:107.6875px;line-height:125%;font-family:'Source Sans Pro Light';text-align:start;letter-spacing:0px;word-spacing:0px;text-anchor:start;fill:#000000;fill-opacity:1;stroke:none"
       id="text20">
      <path
         id="path45"
         style="font-style:normal;font-variant:normal;font-weight:300;font-size:107.6875px;font-family:'Source Sans Pro Light';fill:#17365d"
         d="m 726.92538,300.78661 h 4.73825 v -28.4295 c 5.38437,3.98444 10.66106,6.35357 15.507,6.35357 12.16868,0 22.82975,-10.338 22.82975,-27.89107 0,-16.04543 -6.892,-26.38343 -20.676,-26.38343 -6.35357,0 -12.49175,3.76906 -17.55307,7.7535 h -0.32306 l -0.43075,-6.46125 h -4.09212 z m 20.02987,-26.27575 c -3.98444,0 -9.36881,-1.83068 -15.29162,-6.67662 V 237.1433 c 6.24587,-5.49206 11.73793,-8.50731 16.90693,-8.50731 11.84563,0 16.3685,9.4765 16.3685,22.18362 0,13.99938 -7.53812,23.69125 -17.98381,23.69125 z m -62.16765,4.19982 c 7.10737,0 12.49175,-3.98444 17.55306,-9.90725 h 0.21537 l 0.53844,8.615 h 3.98444 v -51.69 h -4.73825 v 38.12137 c -6.0305,7.32275 -10.55338,10.55338 -16.69156,10.55338 -8.29194,0 -11.73794,-5.169 -11.73794,-16.15313 v -32.52162 h -4.73825 v 33.16775 c 0,13.35325 4.95362,19.8145 15.61469,19.8145 z m -53.64521,0 c 12.49175,0 23.2605,-9.90725 23.2605,-27.02957 0,-17.33768 -10.76875,-27.24493 -23.2605,-27.24493 -12.38406,0 -23.15281,9.90725 -23.15281,27.24493 0,17.12232 10.76875,27.02957 23.15281,27.02957 z m 0,-4.19982 c -10.44568,0 -18.19918,-9.26112 -18.19918,-22.82975 0,-13.67631 7.7535,-23.04512 18.19918,-23.04512 10.44569,0 18.30688,9.36881 18.30688,23.04512 0,13.56863 -7.86119,22.82975 -18.30688,22.82975 z m -51.86667,2.90757 h 4.73825 v -35.21382 c 3.98444,-9.69187 9.4765,-13.24556 14.10706,-13.24556 2.04606,0 3.01525,0.21538 4.73825,0.8615 l 1.07688,-4.3075 c -1.723,-0.8615 -3.23063,-1.07687 -5.169,-1.07687 -6.13819,0 -11.1995,4.52287 -14.6455,10.87643 h -0.32307 l -0.43075,-9.58418 h -4.09212 z m -38.71029,1.29225 c 9.26112,0 16.58387,-3.33832 20.99906,-8.07657 v -28.10643 h -21.75287 v 4.19981 h 17.01462 v 22.07594 c -3.446,3.446 -9.4765,5.38437 -15.93775,5.38437 -16.15312,0 -25.62962,-12.70712 -25.62962,-32.41394 0,-19.70681 10.01493,-32.09087 26.27575,-32.09087 7.7535,0 12.70712,3.33831 16.3685,7.32275 l 2.90756,-3.33831 c -3.76906,-3.98444 -9.79956,-8.50732 -19.38375,-8.50732 -18.73763,0 -31.33706,14.10707 -31.33706,36.61375 0,22.61438 12.16868,36.93682 30.47556,36.93682 z m -78.99047,0 c 11.1995,0 17.44538,-6.78432 17.44538,-14.53782 0,-10.12262 -8.83038,-12.81481 -16.90694,-15.83006 -6.13819,-2.26144 -12.16869,-4.52287 -12.16869,-10.44569 0,-4.73825 3.66138,-9.36881 11.63025,-9.36881 5.27669,0 8.93807,2.04606 12.38407,4.63056 l 2.5845,-3.33831 c -3.76907,-3.12294 -9.26113,-5.38437 -14.75319,-5.38437 -10.76875,0 -16.69156,6.24587 -16.69156,13.784 0,8.83037 8.615,11.95331 16.47618,14.75318 5.92282,2.15375 12.59944,4.95363 12.59944,11.41488 0,5.49206 -4.19981,10.23031 -12.27637,10.23031 -7.43044,0 -12.061,-2.90756 -16.47619,-6.56894 l -2.79988,3.55369 c 4.63057,3.87675 11.30719,7.10738 18.953,7.10738 z m -69.70073,-1.29225 h 4.73825 v -38.98288 c 6.35356,-6.46125 10.76875,-9.69187 16.90694,-9.69187 8.39962,0 11.84562,5.169 11.84562,16.15312 v 32.52163 h 4.73825 v -33.16775 c 0,-13.35325 -4.95362,-19.8145 -15.61469,-19.8145 -7.10737,0 -12.49175,3.98443 -17.76843,9.26112 h -0.32307 l -0.43075,-7.96887 h -4.09212 z m -38.78433,1.29225 c 12.49175,0 23.2605,-9.90725 23.2605,-27.02957 0,-17.33768 -10.76875,-27.24493 -23.2605,-27.24493 -12.38406,0 -23.15281,9.90725 -23.15281,27.24493 0,17.12232 10.76875,27.02957 23.15281,27.02957 z m 0,-4.19982 c -10.44568,0 -18.19918,-9.26112 -18.19918,-22.82975 0,-13.67631 7.7535,-23.04512 18.19918,-23.04512 10.44569,0 18.30688,9.36881 18.30688,23.04512 0,13.56863 -7.86119,22.82975 -18.30688,22.82975 z m -43.45359,2.90757 h 4.73825 v -51.69 h -4.73825 z m 2.47682,-64.18175 c 2.36912,0 4.3075,-1.723 4.3075,-4.19982 0,-2.69218 -1.93838,-4.3075 -4.3075,-4.3075 -2.36913,0 -4.3075,1.61532 -4.3075,4.3075 0,2.47682 1.93837,4.19982 4.3075,4.19982 z m -22.0221,65.474 c 2.15375,0 5.38438,-0.8615 8.39963,-1.93838 l -1.29225,-3.87675 c -1.83069,0.8615 -4.52288,1.61531 -6.46125,1.61531 -7.10738,0 -8.72269,-4.41518 -8.72269,-10.98412 v -33.70619 h 14.96856 v -4.09212 h -14.96856 v -14.96857 h -4.09212 l -0.64613,14.96857 -8.18425,0.43075 v 3.66137 h 8.07656 v 33.27544 c 0,9.26112 2.90757,15.61469 12.9225,15.61469 z m -54.33002,0 c 6.78431,0 13.03018,-3.76907 18.30687,-7.96888 h 0.32306 l 0.43075,6.67663 h 4.09213 v -33.06007 c 0,-11.09181 -4.19981,-19.92218 -16.3685,-19.92218 -8.39963,0 -15.61469,4.09212 -19.27606,6.67662 l 2.15375,3.55369 c 3.55368,-2.5845 9.58418,-6.0305 16.47618,-6.0305 10.23032,0 12.38407,8.50731 12.27638,16.3685 -23.04513,2.5845 -33.38313,8.07656 -33.38313,19.49144 0,9.79956 6.78432,14.21475 14.96857,14.21475 z m 0.8615,-4.09213 c -5.92282,0 -10.98413,-2.90756 -10.98413,-10.338 0,-8.18425 7.21506,-13.13787 28.53719,-15.61469 v 17.55307 c -6.46125,5.49206 -11.63025,8.39962 -17.55306,8.39962 z m -54.30647,4.09213 c 7.10737,0 12.49175,-3.98444 17.55306,-9.90725 h 0.21538 l 0.53843,8.615 h 3.98444 v -51.69 h -4.73825 v 38.12137 c -6.0305,7.32275 -10.55337,10.55338 -16.69156,10.55338 -8.29194,0 -11.73794,-5.169 -11.73794,-16.15313 v -32.52162 h -4.73825 v 33.16775 c 0,13.35325 4.95363,19.8145 15.61469,19.8145 z m -34.40616,0 c 2.15375,0 5.38438,-0.8615 8.39963,-1.93838 l -1.29225,-3.87675 c -1.83069,0.8615 -4.52288,1.61531 -6.46125,1.61531 -7.10738,0 -8.72269,-4.41518 -8.72269,-10.98412 v -33.70619 h 14.96856 v -4.09212 h -14.96856 v -14.96857 h -4.09213 l -0.64612,14.96857 -8.18425,0.43075 v 3.66137 h 8.07656 v 33.27544 c 0,9.26112 2.90756,15.61469 12.9225,15.61469 z m -38.71534,-1.29225 h 4.73825 v -51.69 h -4.73825 z m 2.47681,-64.18175 c 2.36913,0 4.3075,-1.723 4.3075,-4.19982 0,-2.69218 -1.93837,-4.3075 -4.3075,-4.3075 -2.36912,0 -4.3075,1.61532 -4.3075,4.3075 0,2.47682 1.93838,4.19982 4.3075,4.19982 z m -39.573469,65.474 c 13.784,0 22.722063,-8.18425 22.722063,-19.06069 0,-10.87644 -6.999688,-15.29163 -14.968563,-18.84531 l -10.76875,-4.73825 c -5.169,-2.36913 -12.276375,-5.49207 -12.276375,-13.67632 0,-7.7535 6.353563,-12.70712 15.722375,-12.70712 7.107375,0 12.707125,2.90756 16.906938,7.21506 l 2.799875,-3.23062 c -4.3075,-4.63057 -11.1995,-8.50732 -19.706813,-8.50732 -11.845625,0 -20.676,7.21507 -20.676,17.44538 0,10.55337 8.291938,14.96856 14.430125,17.66075 l 10.76875,4.84594 c 6.999688,3.12293 12.707125,5.92281 12.707125,14.86087 0,8.39963 -6.784312,14.21475 -17.66075,14.21475 -8.18425,0 -15.614687,-3.76906 -20.783687,-9.58419 l -3.230625,3.446 c 5.59975,6.24588 13.676312,10.66107 24.014312,10.66107 z M 691.63416,149.27667 c 1.50763,0 2.47682,-0.21537 3.446,-0.53844 l -0.8615,-3.87675 c -1.07687,0.21538 -1.50762,0.21538 -1.93837,0.21538 -1.29225,0 -2.26144,-1.07688 -2.26144,-3.33831 V 70.557108 h -4.73825 v 70.535312 c 0,5.59975 2.15375,8.18425 6.35356,8.18425 z m -47.83848,0 c 6.78431,0 13.03018,-3.76906 18.30687,-7.96887 h 0.32306 l 0.43075,6.67662 h 4.09213 v -33.06006 c 0,-11.09181 -4.19981,-19.922189 -16.3685,-19.922189 -8.39963,0 -15.61469,4.092125 -19.27606,6.676629 l 2.15375,3.55368 c 3.55368,-2.5845 9.58418,-6.030497 16.47618,-6.030497 10.23032,0 12.38407,8.507317 12.27638,16.368497 -23.04513,2.5845 -33.38313,8.07657 -33.38313,19.49144 0,9.79956 6.78432,14.21475 14.96857,14.21475 z m 0.8615,-4.09212 c -5.92282,0 -10.98413,-2.90757 -10.98413,-10.338 0,-8.18425 7.21506,-13.13788 28.53719,-15.61469 v 17.55306 c -6.46125,5.49206 -11.63025,8.39963 -17.55306,8.39963 z m -36.77697,2.79987 h 4.73825 V 96.294421 h -4.73825 z m 2.47681,-64.181749 c 2.36913,0 4.3075,-1.723 4.3075,-4.199813 0,-2.692187 -1.93837,-4.3075 -4.3075,-4.3075 -2.36912,0 -4.3075,1.615313 -4.3075,4.3075 0,2.476813 1.93838,4.199813 4.3075,4.199813 z m -31.68368,65.473999 c 6.56894,0 12.061,-2.90756 16.47619,-6.78431 l -2.47681,-3.33831 c -3.55369,3.23062 -8.29194,5.92281 -13.784,5.92281 -11.30719,0 -18.73763,-9.26113 -18.73763,-22.82975 0,-13.67631 8.18425,-23.045127 18.73763,-23.045127 5.06131,0 8.93806,2.369127 12.27637,5.492067 l 2.79988,-3.33832 c -3.55369,-3.230622 -8.07657,-6.353559 -15.18394,-6.353559 -12.59944,0 -23.58356,9.907249 -23.58356,27.244939 0,17.12231 10.12262,27.02956 23.47587,27.02956 z m -51.52005,0 c 7.53812,0 12.16868,-2.5845 16.26081,-5.06131 l -1.93838,-3.66138 c -3.87675,2.79988 -8.29193,4.63057 -13.89168,4.63057 -11.63025,0 -19.27607,-9.36882 -19.49144,-22.399 h 37.25987 c 0.21538,-1.29225 0.21538,-2.5845 0.21538,-3.87675 0,-15.18394 -7.53813,-23.906629 -19.8145,-23.906629 -11.52256,0 -22.50669,10.337999 -22.50669,27.244939 0,16.90694 10.66106,27.02956 23.90663,27.02956 z M 508.0926,118.9088 c 1.07687,-12.38407 8.93806,-19.814504 17.76844,-19.814504 9.26112,0 15.18393,6.568934 15.18393,19.814504 z m -59.21971,52.44381 h 4.73825 v -28.4295 c 5.38437,3.98444 10.66106,6.35356 15.507,6.35356 12.16868,0 22.82975,-10.338 22.82975,-27.89106 0,-16.04544 -6.892,-26.383439 -20.676,-26.383439 -6.35357,0 -12.49175,3.769062 -17.55307,7.753499 h -0.32306 l -0.43075,-6.461249 h -4.09212 z m 20.02987,-26.27575 c -3.98444,0 -9.36881,-1.83069 -15.29162,-6.67663 V 107.7093 c 6.24587,-5.49207 11.73793,-8.507317 16.90693,-8.507317 11.84563,0 16.3685,9.476497 16.3685,22.183627 0,13.99937 -7.53812,23.69125 -17.98381,23.69125 z m -57.12653,4.19981 c 13.784,0 22.72206,-8.18425 22.72206,-19.06069 0,-10.87643 -6.99969,-15.29162 -14.96856,-18.84531 l -10.76875,-4.73825 c -5.169,-2.36912 -12.27638,-5.49206 -12.27638,-13.676312 0,-7.7535 6.35356,-12.707125 15.72238,-12.707125 7.10737,0 12.70712,2.907563 16.90693,7.215063 l 2.79988,-3.230625 c -4.3075,-4.630563 -11.1995,-8.507313 -19.70681,-8.507313 -11.84563,0 -20.676,7.215063 -20.676,17.445375 0,10.553377 8.29193,14.968567 14.43012,17.660747 l 10.76875,4.84594 c 6.99969,3.12294 12.70713,5.92281 12.70713,14.86088 0,8.39962 -6.78432,14.21475 -17.66075,14.21475 -8.18425,0 -15.61469,-3.76907 -20.78369,-9.58419 l -3.23063,3.446 c 5.59975,6.24587 13.67632,10.66106 24.01432,10.66106 z m -97.72304,-1.29225 h 4.73825 v -38.98287 c 6.35356,-6.46125 10.76875,-9.691879 16.90693,-9.691879 8.39963,0 11.84563,5.168999 11.84563,16.153129 v 32.52162 h 4.73825 v -33.16775 c 0,-13.35325 -4.95363,-19.814499 -15.61469,-19.814499 -7.10737,0 -12.49175,3.984437 -17.76844,9.261129 h -0.32306 l -0.43075,-7.968879 h -4.09212 z m -38.78433,1.29225 c 12.49175,0 23.2605,-9.90725 23.2605,-27.02956 0,-17.33769 -10.76875,-27.244939 -23.2605,-27.244939 -12.38406,0 -23.15281,9.907249 -23.15281,27.244939 0,17.12231 10.76875,27.02956 23.15281,27.02956 z m 0,-4.19981 c -10.44569,0 -18.19919,-9.26113 -18.19919,-22.82975 0,-13.67631 7.7535,-23.045127 18.19919,-23.045127 10.44569,0 18.30687,9.368817 18.30687,23.045127 0,13.56862 -7.86118,22.82975 -18.30687,22.82975 z m -51.86668,2.90756 h 4.73825 v -35.21381 c 3.98444,-9.69188 9.4765,-13.245564 14.10707,-13.245564 2.04606,0 3.01525,0.215375 4.73825,0.861504 l 1.07687,-4.307504 c -1.723,-0.8615 -3.23062,-1.076875 -5.169,-1.076875 -6.13819,0 -11.1995,4.522875 -14.6455,10.876439 h -0.32306 l -0.43075,-9.584189 h -4.09213 z m -41.48492,1.29225 c 6.78431,0 13.03018,-3.76906 18.30687,-7.96887 h 0.32306 l 0.43075,6.67662 h 4.09213 v -33.06006 c 0,-11.09181 -4.19981,-19.922189 -16.3685,-19.922189 -8.39963,0 -15.61469,4.092125 -19.27606,6.676629 l 2.15375,3.55368 c 3.55368,-2.5845 9.58418,-6.030497 16.47618,-6.030497 10.23032,0 12.38407,8.507317 12.27638,16.368497 -23.04513,2.5845 -33.38313,8.07657 -33.38313,19.49144 0,9.79956 6.78432,14.21475 14.96857,14.21475 z m 0.8615,-4.09212 c -5.92282,0 -10.98413,-2.90757 -10.98413,-10.338 0,-8.18425 7.21506,-13.13788 28.53719,-15.61469 v 17.55306 c -6.46125,5.49206 -11.63025,8.39963 -17.55306,8.39963 z m -68.95702,2.79987 h 4.73825 v -38.98287 c 6.35356,-6.46125 10.76875,-9.691879 16.90694,-9.691879 8.39962,0 11.84562,5.168999 11.84562,16.153129 v 32.52162 h 4.73825 v -33.16775 c 0,-13.35325 -4.95362,-19.814499 -15.61469,-19.814499 -7.10737,0 -12.49175,3.984437 -17.87612,9.368809 V 70.557108 h -4.73825 z m -35.047234,1.29225 c 9.153438,0 15.614688,-3.87675 21.10675,-10.12262 l -2.907562,-3.12294 c -5.169,5.70744 -10.661063,8.72269 -17.983813,8.72269 -15.291625,0 -24.768125,-12.70713 -24.768125,-32.41394 0,-19.706814 9.584188,-32.090877 25.198875,-32.090877 6.46125,0 11.63025,2.907563 15.507,7.32275 l 2.907563,-3.338312 c -3.769063,-4.415188 -10.230313,-8.507313 -18.52225,-8.507313 -17.983813,0 -30.260188,14.107063 -30.260188,36.613752 0,22.61437 12.168688,36.93681 29.72175,36.93681 z" />
    </g>
  </g>
</svg>
